<svg width="1549" height="816" viewBox="0 0 1549 816" fill="none" xmlns="http://www.w3.org/2000/svg">
<path d="M1304.9 159.8C1257 159.8 1212.4 173.6 1174.7 197.5V159.8H1171.4H1112.3H1061.6V815.5H1112.3H1171.4H1174.7V608.6C1212.3 632.5 1257 646.3 1304.9 646.3C1439.3 646.3 1548.2 537.4 1548.2 403C1548.2 268.7 1439.3 159.8 1304.9 159.8ZM1304.9 532.8C1233.4 532.8 1175.1 474.6 1175.1 403C1175.1 331.4 1233.3 273.2 1304.9 273.2C1376.4 273.2 1434.7 331.4 1434.7 403C1434.7 474.6 1376.4 532.8 1304.9 532.8Z" fill="black"/>
<path d="M966.8 159.8H904.4V197.3C866.8 173.6 822.4 159.8 774.6 159.8C716.3 159.8 662.8 180.3 620.9 214.5C609 224.2 598.1 235 588.2 246.8C563 276.8 544.9 313 536.6 352.8C533.4 367.8 531.7 383.4 531.4 399.3C531.4 400.5 531.4 401.8 531.4 403C531.4 404.3 531.4 405.5 531.4 406.7C530.8 426.8 525.7 445.7 516.9 462.5C511.9 472.2 505.7 481.1 498.5 489.2C474.7 515.9 440.1 532.7 401.7 532.7C351.6 532.7 308.1 504.2 286.5 462.5H342.8H429.1C460.7 462.5 486.2 436.9 486.2 405.4C486.2 376.3 462.6 352.7 433.5 352.7H334.8H282.2C301.9 306.1 348.1 273.2 401.8 273.2C440.2 273.2 474.8 290 498.6 316.7C510.5 278.6 530.1 244 555.5 214.4C513.6 180.2 460.1 159.7 401.8 159.7C267.5 159.7 158.4 268.9 158.5 403.2C158.6 537.5 267.5 646.3 401.8 646.3C460.1 646.3 513.6 625.8 555.5 591.6C567.4 581.9 578.3 571.1 588.2 559.3C622.9 517.9 644.1 464.8 645 406.8C645 405.6 645 404.3 645 403.1C645 401.8 645 400.6 645 399.4C645.9 367.8 658.2 338.9 677.9 316.9C702.7 289.1 739.4 272 779.8 273.5C846.6 276.1 901.1 330.2 904.3 397C907.8 471.4 848.3 532.9 774.7 532.9C736.3 532.9 701.7 516.1 677.9 489.4C666 527.5 646.4 562.2 621 591.7C662.9 625.9 716.4 646.4 774.7 646.4C822.4 646.4 866.9 632.7 904.5 608.9V655.7H908.2H915.6H967H1018.1V559.4V403.1V246.8V159.8H966.8Z" fill="black"/>
<path d="M113.6 0H4.40001H0V655.7H4.40001H113.6H114.3V0H113.6Z" fill="black"/>
</svg>
