<?xml version="1.0" encoding="utf-8"?>
<!-- Generator: Adobe Illustrator 25.2.1, SVG Export Plug-In . SVG Version: 6.00 Build 0)  -->
<svg version="1.1" xmlns="http://www.w3.org/2000/svg" xmlns:xlink="http://www.w3.org/1999/xlink" x="0px" y="0px"
	 viewBox="0 0 1920 1027.1" style="enable-background:new 0 0 1920 1027.1;" xml:space="preserve">
<style type="text/css">
	.st0{fill:#FFFFFF;}
</style>
<g id="Layer_2">
	<rect width="1920" height="1027.1"/>
</g>
<g id="Layer_1">
	<g>
		<g>
			<path class="st0" d="M1490.8,265.6c-47.9,0-92.5,13.8-130.2,37.7v-37.7h-3.3h-59.1h-50.7v655.7h50.7h59.1h3.3V714.4
				c37.6,23.9,82.3,37.7,130.2,37.7c134.4,0,243.3-108.9,243.3-243.3C1734.1,374.5,1625.2,265.6,1490.8,265.6z M1490.8,638.6
				c-71.5,0-129.8-58.2-129.8-129.8s58.2-129.8,129.8-129.8c71.5,0,129.8,58.2,129.8,129.8S1562.3,638.6,1490.8,638.6z"/>
			<path class="st0" d="M1152.7,265.6L1152.7,265.6l-62.4,0v37.5c-37.6-23.7-82-37.5-129.8-37.5c-58.3,0-111.8,20.5-153.7,54.7
				c-11.9,9.7-22.8,20.5-32.7,32.3c-25.2,30-43.3,66.2-51.6,106c-3.2,15-4.9,30.6-5.2,46.5c0,1.2,0,2.5,0,3.7c0,1.3,0,2.5,0,3.7
				c-0.6,20.1-5.7,39-14.5,55.8c-5,9.7-11.2,18.6-18.4,26.7c-23.8,26.7-58.4,43.5-96.8,43.5c-50.1,0-93.6-28.5-115.2-70.2h56.3H615
				c31.6,0,57.1-25.6,57.1-57.1l0,0c0-29.1-23.6-52.7-52.7-52.7h-98.7h-52.6c19.7-46.6,65.9-79.5,119.6-79.5
				c38.4,0,73,16.8,96.8,43.5c11.9-38.1,31.5-72.7,56.9-102.3c-41.9-34.2-95.4-54.7-153.7-54.7c-134.3,0-243.4,109.2-243.3,243.5
				c0.1,134.3,109,243.1,243.3,243.1c58.3,0,111.8-20.5,153.7-54.7c11.9-9.7,22.8-20.5,32.7-32.3c34.7-41.4,55.9-94.5,56.8-152.5
				c0-1.2,0-2.5,0-3.7c0-1.3,0-2.5,0-3.7c0.9-31.6,13.2-60.5,32.9-82.5c24.8-27.8,61.5-44.9,101.9-43.4
				c66.8,2.6,121.3,56.7,124.5,123.5c3.5,74.4-56,135.9-129.6,135.9c-38.4,0-73-16.8-96.8-43.5c-11.9,38.1-31.5,72.8-56.9,102.3
				c41.9,34.2,95.4,54.7,153.7,54.7c47.7,0,92.2-13.7,129.8-37.5v46.8h3.7h7.4h51.4h51.1v-96.3V508.9V352.6v-87H1152.7z"/>
			<polygon class="st0" points="299.5,105.8 190.3,105.8 185.9,105.8 185.9,761.5 190.3,761.5 299.5,761.5 300.2,761.5 300.2,105.8 
							"/>
		</g>
	</g>
</g>
</svg>
